<?xml version="1.0" standalone="no"?>
<!DOCTYPE svg PUBLIC "-//W3C//DTD SVG 20010904//EN"
 "http://www.w3.org/TR/2001/REC-SVG-20010904/DTD/svg10.dtd">
<svg version="1.0" xmlns="http://www.w3.org/2000/svg"
 width="1024.000000pt" height="1024.000000pt" viewBox="0 0 1024.000000 1024.000000"
 preserveAspectRatio="xMidYMid meet">

<g transform="translate(0.000000,1024.000000) scale(0.100000,-0.100000)"
fill="#2e6d96" stroke="none">
<path d="M4900 9689 c-898 -80 -1668 -726 -1895 -1591 -46 -179 -66 -337 -66
-544 0 -203 11 -306 51 -471 55 -228 121 -381 315 -728 163 -291 221 -387 473
-775 414 -637 596 -943 768 -1294 l54 -109 0 -273 0 -274 -435 0 -435 0 0
-525 0 -525 435 0 435 0 0 -435 0 -435 520 0 520 0 0 435 0 435 435 0 435 0 0
525 0 525 -435 0 -435 0 0 268 0 268 79 154 c196 387 366 670 784 1308 260
399 361 572 522 897 181 364 231 513 264 785 26 208 6 552 -44 751 -93 372
-297 730 -573 1006 -449 449 -1108 681 -1772 622z m417 -1360 c137 -35 268
-113 366 -219 300 -323 267 -820 -73 -1113 -73 -64 -234 -142 -332 -161 -269
-55 -529 29 -720 233 -349 372 -240 975 218 1205 168 84 354 103 541 55z"/>
</g>
</svg>
